<svg width="24" height="24" viewBox="0 0 24 24" fill="none" xmlns="http://www.w3.org/2000/svg">
<path d="M8.88092 4.52615C8.45899 3.45502 7.62874 2.62837 6.63684 2.07563C6.05494 1.63371 6.62197 0.741082 7.26237 1.09791C8.38689 1.83806 9.32352 2.8538 9.85222 4.10488C9.89339 4.20388 9.94967 4.21762 10.0486 4.21682C11.6839 3.91762 13.2367 5.17147 13.1401 6.87287C13.1341 6.96448 13.129 7.02977 13.2361 7.077C15.9943 8.31657 18.2929 10.3258 20.7344 12.0711C21.4637 12.623 21.9347 13.3298 21.9764 14.292C22.0566 16.1439 22.0863 17.9953 21.9972 19.8469C21.8922 21.6396 21.2255 23.3245 19.0976 22.9337C15.987 22.6088 12.882 22.2432 9.79424 21.7432C7.64382 21.4127 5.43622 21.2655 3.39609 20.4505C1.40642 19.6893 2.01602 18.2113 2.11099 16.5509C2.29184 14.3019 2.37809 12.0489 2.39277 9.79288C2.39909 9.48295 2.40807 9.1721 2.43879 8.86395C2.46734 8.5777 2.68337 8.4559 2.93334 8.38893C4.19604 8.04868 5.46367 7.72635 6.72482 7.38055C6.78344 7.3642 6.86472 7.2916 6.86932 7.23927C6.95039 5.96438 7.80739 5.11005 8.88092 4.52615ZM3.28967 16.7753C3.32962 17.7544 2.78872 18.9294 4.02184 19.2832C7.31479 20.3334 10.813 20.4668 14.2055 21.0452C16.0408 21.2809 17.8808 21.4809 19.7201 21.6833C20.6125 21.7499 20.6565 20.1804 20.725 19.5496C19.9958 19.5431 19.286 19.4004 18.5638 19.3162C13.4737 18.4314 8.27724 18.2006 3.28967 16.7753ZM3.51404 13.8575C3.50349 13.8605 3.49292 13.8635 3.48237 13.8665C3.45094 14.4068 3.41594 14.947 3.39417 15.4877C3.39219 15.5368 3.46654 15.6194 3.52032 15.6349C9.16179 17.1154 14.9996 17.5318 20.7547 18.392C20.7547 17.7332 20.7547 17.0837 20.7547 16.4341C20.7315 16.4165 20.7083 16.3989 20.6851 16.3814C20.5024 16.7214 19.9867 17.042 19.6734 17.2789C18.1816 18.246 16.7342 16.9073 15.9664 15.667C15.6523 15.2627 15.5313 15.2415 15.1194 15.5516C14.8239 15.7739 14.5611 16.0405 14.2619 16.257C12.1768 17.8117 11.6846 15.4975 11.0027 13.9812C10.3402 14.485 9.97287 15.2337 9.36709 15.7923C8.58874 16.5613 7.28157 16.1659 7.00837 15.1269C6.83627 14.6172 6.76319 14.1497 6.59379 13.6202C5.47277 14.3186 4.25874 15.937 3.51404 13.8575ZM9.22504 5.5477C7.44199 6.447 7.70249 9.13865 9.86579 9.03715C12.2585 8.86505 12.9615 5.39192 10.2301 5.18467C10.2142 5.74815 10.1245 5.93365 9.86032 5.99697C9.59042 6.0617 9.43752 5.95552 9.22504 5.5477Z" fill="#CC1B73"/>
</svg>
