<svg width="40" height="40" viewBox="0 0 40 40" fill="none" xmlns="http://www.w3.org/2000/svg">
<g clip-path="url(#clip0_323_7075)">
<g clip-path="url(#clip1_323_7075)">
<path d="M33.0985 14.0828C31.9697 13.6317 31.0004 14.365 29.877 15.2144C28.6886 16.1134 27.3411 17.1321 25.6841 16.47C24.027 15.808 23.7525 14.1412 23.5103 12.6706C23.2819 11.2812 23.0843 10.0817 21.9555 9.63067C20.8266 9.17966 19.8577 9.91312 18.735 10.7622C17.546 11.6615 16.1989 12.6804 14.5414 12.0181C14.462 11.9864 14.3844 11.9512 14.3092 11.9139C14.4543 15.7242 16.8165 19.0836 20.34 20.4908C25.2726 22.4615 30.8783 20.0366 32.8608 15.0747C32.9856 14.7623 33.0941 14.4439 33.1864 14.1205C33.1577 14.1074 33.1283 14.0946 33.0985 14.0828Z" fill="#CC1B73"/>
<path d="M27.521 2.52244C22.5884 0.551694 16.9827 2.97655 15.0002 7.93853C14.6367 8.84577 14.4121 9.80244 14.3339 10.7761C14.4997 10.9263 14.6915 11.0447 14.9 11.1256C16.0288 11.5766 16.9986 10.8435 18.1215 9.99393C19.31 9.09497 20.6574 8.07624 22.314 8.73812C23.9707 9.39999 24.2456 11.0669 24.4877 12.538C24.7162 13.9269 24.9138 15.1265 26.0426 15.5775C27.1715 16.0285 28.1408 15.2952 29.2635 14.4461C30.4424 13.5568 31.7719 12.5485 33.4078 13.172C34.2 8.75151 31.8303 4.24417 27.521 2.52244ZM17.9632 8.02093C17.84 8.32915 17.4917 8.47983 17.1853 8.35741C16.8789 8.235 16.7303 7.88577 16.8534 7.57755L16.8624 7.55522C16.9855 7.24699 17.3338 7.09631 17.6402 7.21873C17.9466 7.34115 18.0952 7.69038 17.9721 7.9986L17.9632 8.02093ZM20.5631 5.5939C20.4399 5.90212 20.0916 6.0528 19.7852 5.93038C19.4788 5.80797 19.3302 5.45874 19.4534 5.15052L19.4623 5.12819C19.5854 4.81996 19.9338 4.66928 20.2402 4.7917C20.5466 4.91412 20.6952 5.26334 20.572 5.57157L20.5631 5.5939ZM22.9671 4.57061C22.844 4.87884 22.4956 5.02952 22.1892 4.9071C21.8828 4.78468 21.7342 4.43546 21.8574 4.12723L21.8663 4.1049C21.9894 3.79668 22.3378 3.646 22.6442 3.76842C22.9506 3.89083 23.0992 4.24006 22.976 4.54828L22.9671 4.57061ZM23.7383 7.12142C23.6151 7.42964 23.2668 7.58032 22.9604 7.4579C22.654 7.33549 22.5054 6.98626 22.6285 6.67804L22.6375 6.65571C22.7606 6.34748 23.1089 6.1968 23.4153 6.31922C23.7217 6.44164 23.8703 6.79087 23.7472 7.09909L23.7383 7.12142ZM25.9126 4.15823C25.7894 4.46646 25.4411 4.61714 25.1347 4.49472C24.8283 4.3723 24.6797 4.02308 24.8028 3.71485L24.8118 3.69252C24.9349 3.3843 25.2832 3.23362 25.5896 3.35604C25.896 3.47845 26.0446 3.82768 25.9215 4.1359L25.9126 4.15823ZM26.3714 8.18534C26.2482 8.49357 25.8999 8.64424 25.5935 8.52183C25.2871 8.39941 25.1385 8.05018 25.2616 7.74196L25.2705 7.71963C25.3937 7.41141 25.742 7.26073 26.0484 7.38314C26.3548 7.50556 26.5034 7.85479 26.3803 8.16301L26.3714 8.18534ZM28.408 5.75077C28.2849 6.05899 27.9366 6.20967 27.6302 6.08725C27.3238 5.96484 27.1752 5.61561 27.2983 5.30739L27.3072 5.28506C27.4304 4.97683 27.7787 4.82616 28.0851 4.94857C28.3915 5.07099 28.5401 5.42022 28.417 5.72844L28.408 5.75077ZM26.8012 9.80855L26.8101 9.78622C26.9333 9.478 27.2816 9.32732 27.588 9.44974C27.8944 9.57215 28.043 9.92138 27.9199 10.2296L27.911 10.2519C27.7878 10.5602 27.4395 10.7108 27.1331 10.5884C26.8267 10.466 26.6781 10.1168 26.8012 9.80855ZM27.3672 13.0764C27.2441 13.3846 26.8958 13.5353 26.5894 13.4129C26.283 13.2905 26.1344 12.9412 26.2575 12.633L26.2664 12.6107C26.3896 12.3025 26.7379 12.1518 27.0443 12.2742C27.3507 12.3966 27.4993 12.7458 27.3762 13.0541L27.3672 13.0764ZM29.9626 7.91136C29.8395 8.21959 29.4911 8.37027 29.1847 8.24785C28.8783 8.12543 28.7297 7.77621 28.8529 7.46798L28.8618 7.44565C28.9849 7.13743 29.3333 6.98675 29.6397 7.10917C29.9461 7.23158 30.0947 7.58081 29.9715 7.88904L29.9626 7.91136ZM31.2374 10.6473C31.1142 10.9555 30.7659 11.1062 30.4595 10.9838C30.1531 10.8614 30.0045 10.5122 30.1276 10.2039L30.1365 10.1816C30.2597 9.87338 30.608 9.7227 30.9144 9.84512C31.2208 9.96754 31.3694 10.3168 31.2463 10.625L31.2374 10.6473Z" fill="#CC1B73"/>
<path d="M19.9819 21.3828C19.1209 21.0388 18.3094 20.5821 17.5684 20.0244L11.7204 34.6612C11.1539 36.0772 11.8357 37.6818 13.2434 38.2449C14.651 38.8081 16.2515 38.1168 16.818 36.7007L22.665 22.0664C21.7443 21.9571 20.8422 21.7273 19.9819 21.3828Z" fill="#CC1B73"/>
</g>
</g>
<defs>
<clipPath id="clip0_323_7075">
<rect width="40" height="40" fill="white"/>
</clipPath>
<clipPath id="clip1_323_7075">
<rect width="19.2352" height="38.4704" fill="white" transform="translate(18.5898 -1.0459) rotate(21.7786)"/>
</clipPath>
</defs>
</svg>
