<svg width="40" height="40" viewBox="0 0 40 40" fill="none" xmlns="http://www.w3.org/2000/svg">
<g clip-path="url(#clip0_323_7084)">
<path d="M34.4107 27.9772H6.36019C6.13214 27.9772 5.94727 28.1665 5.94727 28.4V29.7388C5.94727 29.9724 6.13214 30.1617 6.36019 30.1617H34.4107C34.6388 30.1617 34.8237 29.9724 34.8237 29.7388V28.4C34.8237 28.1665 34.6388 27.9772 34.4107 27.9772Z" fill="#CC1B73"/>
<path d="M34.4107 24.7517H6.36019C6.13214 24.7517 5.94727 24.941 5.94727 25.1746V26.5134C5.94727 26.7469 6.13214 26.9362 6.36019 26.9362H34.4107C34.6388 26.9362 34.8237 26.7469 34.8237 26.5134V25.1746C34.8237 24.941 34.6388 24.7517 34.4107 24.7517Z" fill="#CC1B73"/>
<path d="M34.8255 23.1862C34.4047 16.2351 29.8288 12.5447 27.6618 11.1747C27.2421 10.9109 26.7583 11.4006 27.0103 11.8338L27.0261 11.8603C28.4156 14.2453 27.8395 17.3861 25.7153 19.0118L25.6816 19.0383C24.6307 19.8425 23.3964 20.2665 22.1127 20.2665C20.8289 20.2665 19.6171 19.8495 18.573 19.0602C17.9744 18.6074 17.4996 18.0348 17.1542 17.393C16.9157 16.9494 16.3779 16.7812 15.9537 17.0416L6.80642 22.6596L6.40025 22.9108C6.03683 23.1355 6.19322 23.7069 6.6174 23.7069H34.318C34.5993 23.7069 34.8277 23.473 34.8277 23.185L34.8255 23.1862Z" fill="#CC1B73"/>
<path d="M6.7919 31.2048C6.42286 31.2048 6.19108 31.6288 6.3981 31.9422C6.86841 32.6531 7.66387 33.1209 8.56622 33.1209H32.2051C33.1075 33.1209 33.903 32.6531 34.3733 31.9422C34.5803 31.6288 34.3485 31.2048 33.9795 31.2048H6.7919Z" fill="#CC1B73"/>
<path d="M19.1712 18.221C17.4565 16.9248 16.9828 14.3658 18.1023 12.4348L20.2052 8.80426C21.1008 7.25804 23.1519 7.25459 24.0509 8.7985L26.1447 12.3944C27.2654 14.3174 26.8029 16.8718 25.0984 18.176L25.0646 18.2025C23.2948 19.5575 20.9478 19.5644 19.1701 18.221H19.1712Z" fill="#CC1B73"/>
</g>
<defs>
<clipPath id="clip0_323_7084">
<rect width="28.8764" height="25.4792" fill="white" transform="translate(5.94336 7.64355)"/>
</clipPath>
</defs>
</svg>
