<svg width="40" height="40" viewBox="0 0 40 40" fill="none" xmlns="http://www.w3.org/2000/svg">
<g clip-path="url(#clip0_323_7098)">
<path d="M11.8436 21.5278C12.8189 21.5278 13.6091 22.306 13.6091 23.2662C13.6091 24.2265 12.8189 25.0046 11.8436 25.0046C10.8684 25.0046 10.0782 24.2265 10.0782 23.2662C10.0782 22.306 10.8684 21.5278 11.8436 21.5278ZM15.3746 13.2101C16.3498 13.2101 17.1401 13.9882 17.1401 14.9485C17.1401 15.9088 16.3498 16.6869 15.3746 16.6869C14.3994 16.6869 13.6091 15.9088 13.6091 14.9485C13.6091 13.9882 14.3994 13.2101 15.3746 13.2101ZM18.9056 28.5527C18.9056 29.5129 18.1153 30.2911 17.1401 30.2911C16.1649 30.2911 15.3746 29.5129 15.3746 28.5527C15.3746 27.5924 16.1649 26.8143 17.1401 26.8143C18.1153 26.8143 18.9056 27.5924 18.9056 28.5527ZM22.5123 16.9006C23.4876 16.9006 24.2778 17.6787 24.2778 18.639C24.2778 19.5993 23.4876 20.3774 22.5123 20.3774C21.5371 20.3774 20.7469 19.5993 20.7469 18.639C20.7469 17.6787 21.5371 16.9006 22.5123 16.9006ZM27.7856 24.5786C28.7608 24.5786 29.5511 25.3568 29.5511 26.317C29.5511 27.2773 28.7608 28.0554 27.7856 28.0554C26.8104 28.0554 26.0201 27.2773 26.0201 26.317C26.0201 25.3568 26.8104 24.5786 27.7856 24.5786ZM19.9593 35.671C27.8504 35.671 34.3037 29.6151 34.7903 21.9653C32.9906 21.4989 31.5875 20.071 31.1828 18.2721C28.2142 18.1196 25.8543 15.7011 25.8543 12.7397C25.8543 12.4917 25.8714 12.2471 25.9034 12.0079C23.923 11.2815 22.5123 9.40266 22.5123 7.19925C22.5123 7.00505 22.5239 6.81353 22.5451 6.62538C21.7057 6.48023 20.8417 6.4043 19.9593 6.4043C11.7515 6.4043 5.09766 12.9554 5.09766 21.0373C5.09766 29.1192 11.7515 35.671 19.9593 35.671Z" fill="#CC1B73"/>
<path d="M33.4485 12.2089C33.9358 12.2089 34.3316 11.8199 34.3316 11.3394C34.3316 10.8589 33.9365 10.4698 33.4485 10.4698C32.9606 10.4698 32.5654 10.8589 32.5654 11.3394C32.5654 11.8199 32.9606 12.2089 33.4485 12.2089Z" fill="#CC1B73"/>
<path d="M29.5506 15.7887C30.3416 15.7887 30.9831 15.1571 30.9831 14.3783C30.9831 13.5994 30.3416 12.9678 29.5506 12.9678C28.7597 12.9678 28.1182 13.5994 28.1182 14.3783C28.1182 15.1571 28.7597 15.7887 29.5506 15.7887Z" fill="#CC1B73"/>
<path d="M35.6724 18.3822C35.6724 17.9024 35.2773 17.5127 34.7893 17.5127C34.3014 17.5127 33.9062 17.9018 33.9062 18.3822C33.9062 18.8627 34.3014 19.2518 34.7893 19.2518C35.2773 19.2518 35.6724 18.8627 35.6724 18.3822Z" fill="#CC1B73"/>
<path d="M26.8085 5.0957C25.8449 5.0957 25.0635 5.86512 25.0635 6.81395C25.0635 7.76278 25.8449 8.5322 26.8085 8.5322C27.7721 8.5322 28.5535 7.76278 28.5535 6.81395C28.5535 5.86512 27.7721 5.0957 26.8085 5.0957Z" fill="#CC1B73"/>
</g>
<defs>
<clipPath id="clip0_323_7098">
<rect width="30.575" height="30.575" fill="white" transform="translate(5.09668 5.0957)"/>
</clipPath>
</defs>
</svg>
