<svg width="40" height="40" viewBox="0 0 40 40" fill="none" xmlns="http://www.w3.org/2000/svg">
<path d="M13.9463 38.2186C13.1423 38.2186 12.4291 37.6275 12.1292 36.7127L9.31965 28.1426C9.00296 27.1761 9.38315 26.066 10.1675 25.6681C10.3584 25.5711 10.5597 25.5222 10.7649 25.5222C11.4055 25.5222 11.973 25.9919 12.2114 26.7182L13.8213 31.6293L13.0138 27.9237C12.7941 26.9146 13.2829 25.8684 14.1044 25.5916C14.2406 25.5459 14.3804 25.5226 14.5201 25.5226C15.2246 25.5226 15.8432 26.1047 16.0249 26.9379L17.2194 32.4199L16.9866 27.542C16.9359 26.4757 17.6036 25.5703 18.475 25.5242C18.4978 25.523 18.5202 25.5222 18.5425 25.5222C19.3664 25.5222 20.0505 26.3243 20.0992 27.348L20.3832 33.2958L20.6683 27.3188C20.7162 26.3117 21.3992 25.5226 22.2226 25.5226C22.2634 25.5226 22.3045 25.5246 22.3452 25.5285C23.1855 25.6082 23.8281 26.5246 23.7782 27.5716L23.5465 32.4199L24.741 26.9379C24.9227 26.1047 25.5413 25.5226 26.2458 25.5226C26.3856 25.5226 26.5258 25.5459 26.6615 25.5916C27.4826 25.8684 27.9719 26.9146 27.7518 27.9237L26.9443 31.6297L28.5545 26.7186C28.7925 25.9919 29.3604 25.5226 30.001 25.5226C30.2063 25.5226 30.4076 25.5719 30.5985 25.6685C31.3828 26.0664 31.7634 27.1765 31.4463 28.143L28.6368 36.7131C28.3369 37.6279 27.6236 38.219 26.8197 38.219H13.9463V38.2186Z" fill="#CC1B73"/>
<path d="M32.6906 17.9865C31.9801 17.2029 31.0077 16.5058 29.7956 15.9107C29.8751 15.6335 29.9078 15.3511 29.893 15.068C29.8359 13.9513 29.3391 13.0967 28.4162 12.5293C27.8854 12.2028 27.2173 11.9689 26.3495 11.81C26.5444 11.4721 26.685 11.0825 26.7748 10.6341C27.2704 8.16517 26.3271 6.02313 24.0476 4.43987C22.3782 3.28053 20.5927 2.83729 20.5176 2.81876L19.4058 2.54785L19.9913 3.51989C20.6826 4.6682 20.9054 5.64418 20.653 6.42181C19.9625 8.54964 17.0991 8.38836 15.8315 9.99055C15.4841 10.4298 15.3279 10.9985 15.5472 11.5324C16.0012 12.6377 17.8271 13.415 18.9669 13.3349C18.2293 13.3866 17.4801 13.4063 16.7576 13.2509C15.143 12.9035 13.9122 11.5391 14.8443 9.94677C14.24 10.0331 13.631 10.2031 13.0631 10.4472C12.0839 10.8683 11.3011 11.4721 10.7991 12.1933C10.2744 12.9481 10.0811 13.7915 10.2237 14.6717C10.2241 14.6733 11.3303 18.287 16.6546 18.1837C16.6546 18.1837 12.8371 19.4585 9.60505 16.6911C8.98005 17.1083 8.4497 17.561 8.02079 18.0464C7.20689 18.9684 6.79395 19.9601 6.79395 20.9953C6.79395 22.4113 7.58269 23.7679 9.0747 24.9181L9.37342 25.1484L9.66935 24.9146C9.76919 24.8357 9.87462 24.7679 9.98365 24.7127C10.2321 24.5865 10.4948 24.5226 10.7648 24.5226C11.1646 24.5226 11.5647 24.6701 11.8918 24.9382C12.026 25.0483 12.1478 25.178 12.254 25.3235L12.643 25.8566L13.032 25.3235C13.2804 24.9828 13.6067 24.7371 13.9753 24.6129C14.153 24.553 14.3367 24.5226 14.5208 24.5226C15.1554 24.5226 15.7528 24.885 16.119 25.4919L16.5312 26.1745L16.9425 25.4915C16.9761 25.4355 17.0124 25.3807 17.0504 25.3286C17.3998 24.8468 17.9114 24.5538 18.4537 24.525C18.4837 24.5234 18.5136 24.5226 18.5428 24.5226C19.0931 24.5226 19.6222 24.8026 19.9945 25.2912L20.3786 25.7947L20.7612 25.29C20.7868 25.2561 20.8139 25.2226 20.8415 25.1902C21.2101 24.7596 21.7009 24.5226 22.2233 24.5226C22.2768 24.5226 22.3307 24.525 22.3842 24.5301C22.9629 24.5849 23.4869 24.9367 23.8211 25.495L24.2329 26.1824L24.6458 25.4954C25.012 24.8862 25.6103 24.5226 26.2465 24.5226C26.4306 24.5226 26.6143 24.553 26.792 24.6129C27.1606 24.7371 27.4865 24.9828 27.7349 25.3235L28.1239 25.8566L28.5128 25.3235C28.6191 25.178 28.7409 25.0483 28.8751 24.9382C29.2017 24.6701 29.6019 24.5226 30.0021 24.5226C30.272 24.5226 30.5348 24.5865 30.7832 24.7123C30.8918 24.7675 30.9977 24.8353 31.0975 24.9142L31.3934 25.148L31.6922 24.9177C33.1842 23.7675 33.9729 22.4109 33.9729 20.9949C33.9729 19.9361 33.542 18.9238 32.6918 17.9861L32.6906 17.9865Z" fill="#CC1B73"/>
</svg>
