<svg width="24" height="24" viewBox="0 0 24 24" fill="none" xmlns="http://www.w3.org/2000/svg">
<path d="M8.67188 9.67016C8.67188 8.38016 9.66188 7.34016 10.8919 7.34016H13.4019C14.4719 7.34016 15.3419 8.25016 15.3419 9.37016C15.3419 10.5902 14.8119 11.0202 14.0219 11.3002L9.99187 12.7002C9.20187 12.9802 8.67188 13.4102 8.67188 14.6302C8.67188 15.7502 9.54187 16.6602 10.6119 16.6602H13.1219C14.3519 16.6602 15.3419 15.6202 15.3419 14.3302" stroke="#CC1B73" stroke-width="1.5" stroke-linecap="round" stroke-linejoin="round"/>
<path d="M12 18V6" stroke="#CC1B73" stroke-width="1.5" stroke-linecap="round" stroke-linejoin="round"/>
<path d="M12 2C17.5228 2 22 6.47715 22 12C22 17.5228 17.5228 22 12 22C6.47715 22 2 17.5228 2 12C2 6.47715 6.47715 2 12 2Z" stroke="#CC1B73" stroke-width="1.5" stroke-linecap="round" stroke-linejoin="round"/>
</svg>
