<svg width="32" height="32" viewBox="0 0 32 32" fill="none" xmlns="http://www.w3.org/2000/svg">
<path d="M26.6263 13.334H5.29297V24.0007C5.29297 28.0007 6.6263 29.334 10.6263 29.334H21.293C25.293 29.334 26.6263 28.0007 26.6263 24.0007V13.334Z" stroke="#CC1B73" stroke-width="2" stroke-miterlimit="10" stroke-linecap="round" stroke-linejoin="round"/>
<path d="M28.6654 9.33268V10.666C28.6654 12.1327 27.9587 13.3327 25.9987 13.3327H5.9987C3.9587 13.3327 3.33203 12.1327 3.33203 10.666V9.33268C3.33203 7.86602 3.9587 6.66602 5.9987 6.66602H25.9987C27.9587 6.66602 28.6654 7.86602 28.6654 9.33268Z" stroke="#CC1B73" stroke-width="2" stroke-miterlimit="10" stroke-linecap="round" stroke-linejoin="round"/>
<path d="M15.5204 6.66659H8.16036C7.70703 6.17326 7.72036 5.41326 8.20036 4.93326L10.0937 3.03992C10.587 2.54659 11.4004 2.54659 11.8937 3.03992L15.5204 6.66659Z" stroke="#CC1B73" stroke-width="2" stroke-miterlimit="10" stroke-linecap="round" stroke-linejoin="round"/>
<path d="M23.8268 6.66659H16.4668L20.0935 3.03992C20.5868 2.54659 21.4001 2.54659 21.8935 3.03992L23.7868 4.93326C24.2668 5.41326 24.2801 6.17326 23.8268 6.66659Z" stroke="#CC1B73" stroke-width="2" stroke-miterlimit="10" stroke-linecap="round" stroke-linejoin="round"/>
<path d="M11.9199 13.334V20.1873C11.9199 21.254 13.0933 21.8806 13.9866 21.3073L15.2399 20.4806C15.6933 20.1873 16.2666 20.1873 16.7066 20.4806L17.8933 21.2806C18.7733 21.8673 19.9599 21.2407 19.9599 20.174V13.334H11.9199Z" stroke="#CC1B73" stroke-width="2" stroke-miterlimit="10" stroke-linecap="round" stroke-linejoin="round"/>
</svg>
