<svg width="40" height="40" viewBox="0 0 40 40" fill="none" xmlns="http://www.w3.org/2000/svg">
<g clip-path="url(#clip0_323_7070)">
<path d="M19.2289 35.6084V20.4871H8.17773V34.2934C8.17773 35.0159 8.71739 35.6084 9.40439 35.6084H19.2295H19.2289Z" fill="#CC1B73"/>
<path d="M32.5378 34.2944V20.488H21.4873V35.6093H31.3112C31.9864 35.6093 32.5378 35.0175 32.5378 34.2944Z" fill="#CC1B73"/>
<path d="M21.4834 18.069H33.5398C34.2144 18.069 34.7665 17.4772 34.7665 16.754V14.6106C34.7665 13.8881 34.2144 13.2956 33.5398 13.2956H27.6782C28.4273 13.047 29.1019 12.5776 29.5989 11.8912C30.3421 10.8642 30.5954 9.55368 30.2942 8.29516C29.9575 6.89137 28.9871 5.7927 27.6989 5.35564C26.4107 4.91859 25.0272 5.21926 23.9988 6.15935L20.3526 9.49405L16.7063 6.15935C15.6779 5.21926 14.2956 4.91859 13.0056 5.35564C11.7175 5.79334 10.747 6.89201 10.4103 8.29516C10.1085 9.55431 10.3624 10.8649 11.1056 11.8918C11.6027 12.5776 12.2766 13.0463 13.0264 13.295H7.17001C6.49544 13.295 5.94336 13.8868 5.94336 14.61V16.7534C5.94336 17.4759 6.49544 18.0684 7.17001 18.0684H19.2271V13.5012L20.3526 13.4999L21.4839 13.5012V18.0684L21.4834 18.069ZM14.1808 10.8763H14.1796C13.7317 10.8763 13.3175 10.6587 13.0429 10.2794C12.7684 9.90003 12.6743 9.41539 12.7861 8.94979C12.9127 8.42329 13.2625 8.02683 13.7453 7.86317C13.8938 7.81243 14.0429 7.78832 14.1903 7.78832C14.5234 7.78832 14.8459 7.91519 15.114 8.16004L18.0797 10.8725L14.1808 10.8763ZM25.5905 8.16004C25.9769 7.80799 26.4746 7.69888 26.9586 7.86381C27.4415 8.02747 27.7918 8.42393 27.9178 8.95043C28.0291 9.41539 27.9356 9.90066 27.661 10.28C27.3864 10.6593 26.9722 10.8769 26.5243 10.8769H26.5231L22.6248 10.8731L25.5911 8.16068L25.5905 8.16004Z" fill="#CC1B73"/>
</g>
<defs>
<clipPath id="clip0_323_7070">
<rect width="28.8764" height="30.575" fill="white" transform="translate(5.94336 5.09656)"/>
</clipPath>
</defs>
</svg>
