<svg width="40" height="40" viewBox="0 0 40 40" fill="none" xmlns="http://www.w3.org/2000/svg">
<path d="M6.79986 23.6394C6.84574 22.7111 7.16083 21.8341 7.69926 21.0327C7.68918 21.1042 7.68162 21.1767 7.67809 21.2492C7.52836 24.2739 13.0251 27.0194 19.9547 27.381C26.8842 27.7425 32.6234 25.584 32.7727 22.5593C32.7822 22.3718 32.7696 22.1858 32.7364 22.0009C33.3272 22.9551 33.6277 23.9807 33.5758 25.037C33.36 29.4033 27.1912 32.63 19.7974 32.2441C12.4035 31.8582 6.58459 28.0057 6.80037 23.6394H6.79986Z" fill="#CC1B73"/>
<path d="M31.0493 22.1322C30.8825 22.1234 30.7201 22.0985 30.5633 22.0602C30.3753 22.1777 30.1807 22.2917 29.9805 22.4015C29.9836 22.4839 29.9841 22.5673 29.9795 22.6512C29.9044 24.17 28.6455 25.3381 27.1679 25.261C26.2932 25.2154 25.5385 24.7435 25.0832 24.0514C24.9204 24.0804 24.756 24.1068 24.5907 24.1317C24.0699 24.7119 23.3111 25.0595 22.4843 25.0159C21.8713 24.9838 21.3167 24.7419 20.8831 24.3617C20.6528 24.3565 20.4208 24.3482 20.1874 24.3358C20.131 24.3327 20.0745 24.3296 20.018 24.3265C19.4988 25.0087 18.676 25.4298 17.7705 25.3822C16.6543 25.3242 15.7327 24.5715 15.3809 23.5526C15.2155 23.5054 15.0516 23.4567 14.8893 23.406C14.4053 23.7794 13.7968 23.9877 13.1449 23.9535C11.7676 23.8815 10.6867 22.7533 10.6066 21.3707C10.4281 21.2469 10.2557 21.12 10.0893 20.9905C9.92999 21.0122 9.76664 21.02 9.60027 21.0112C8.12261 20.934 6.98525 19.6405 7.06036 18.1222C7.07902 17.7493 7.16876 17.398 7.31597 17.081C7.21161 16.6391 7.16775 16.188 7.19044 15.7311C7.40621 11.3653 13.575 8.13855 20.9689 8.52447C28.3632 8.91091 34.1821 12.7634 33.9658 17.1297C33.9432 17.585 33.8554 18.0285 33.7087 18.4563C33.8242 18.7884 33.8796 19.1484 33.861 19.5224C33.7859 21.0407 32.527 22.2093 31.0488 22.1322H31.0493Z" fill="#CC1B73"/>
</svg>
