<svg width="96" height="134" viewBox="0 0 96 134" fill="none" xmlns="http://www.w3.org/2000/svg">
<g clip-path="url(#clip0_323_6476)">
<path d="M48 0C21.4905 0 0 21.478 0 47.9731C0 81.8954 48 134 48 134C48 134 96 81.8954 96 47.9731C96 21.478 74.51 0 48 0ZM48 71.9597C34.745 71.9597 24 61.2207 24 47.9731C24 34.7255 34.745 23.9866 48 23.9866C61.255 23.9866 72 34.7255 72 47.9731C72 61.2207 61.255 71.9597 48 71.9597Z" fill="#CC1B73"/>
<path d="M48 71.9597C34.745 71.9597 24 61.2207 24 47.9731C24 34.7255 34.745 23.9866 48 23.9866C61.255 23.9866 72 34.7255 72 47.9731C72 61.2207 61.255 71.9597 48 71.9597Z" fill="#CC1B73"/>
<path d="M76.2502 61.319V52.099C76.2502 49.119 72.8102 46.499 66.5302 44.709V37.389C66.529 37.3219 66.5223 37.255 66.5102 37.189C66.3802 35.359 64.3002 33.819 60.5802 32.729L61.2802 32.019C61.4103 31.8877 61.5009 31.7224 61.5415 31.542C61.5822 31.3617 61.5713 31.1735 61.5102 30.999L58.7002 22.679C58.6217 22.444 58.4581 22.247 58.2415 22.1267C58.0249 22.0064 57.7712 21.9715 57.5302 22.029L49.7402 23.879C49.5202 23.9282 49.3238 24.0513 49.1837 24.2279C49.0435 24.4044 48.9682 24.6236 48.9702 24.849V27.299C48.5903 27.2046 48.2014 27.1509 47.8102 27.139C46.7169 27.1066 45.6363 27.3802 44.6902 27.929C44.3677 27.5699 44.0091 27.2449 43.6202 26.959C42.3959 26.0611 40.9301 25.5515 39.4128 25.4963C37.8955 25.441 36.3966 25.8426 35.1102 26.649C34.916 26.7725 34.7709 26.96 34.7002 27.179C34.5415 27.6485 34.4211 28.1301 34.3402 28.619C34.1612 29.8796 34.2987 31.1648 34.7402 32.359C34.8102 32.539 34.8802 32.709 34.9602 32.879C31.4902 33.949 29.6102 35.429 29.4902 37.189C29.4781 37.255 29.4714 37.3219 29.4702 37.389V44.709C23.1902 46.499 19.7502 49.119 19.7502 52.099V72.299C19.7502 72.313 19.7422 72.324 19.7422 72.338C19.7422 78.613 34.3002 81.999 48.0002 81.999C61.7002 81.999 76.2582 78.613 76.2582 72.339C76.2582 72.325 76.2502 72.314 76.2502 72.3V61.319ZM50.9702 25.639L57.1002 24.179L59.4202 31.059L56.7902 33.719L53.1602 34.389C53.2777 33.9651 53.3448 33.5287 53.3602 33.089C53.3949 32.1445 53.1947 31.2061 52.7776 30.3579C52.3604 29.5097 51.7394 28.7782 50.9702 28.229V25.639ZM43.8402 32.599H43.8602C43.9335 31.6547 44.3604 30.7728 45.0555 30.1295C45.7507 29.4863 46.663 29.129 47.6102 29.129C47.6502 29.129 47.6902 29.139 47.7402 29.139C48.734 29.1755 49.673 29.6043 50.3514 30.3315C51.0299 31.0587 51.3926 32.025 51.3602 33.019C51.331 33.762 51.0879 34.4808 50.6602 35.089C50.513 35.2861 50.349 35.4701 50.1702 35.639C49.6349 36.1366 48.9663 36.4674 48.246 36.591C47.5257 36.7146 46.785 36.6256 46.1145 36.3349C45.444 36.0442 44.8728 35.5644 44.4706 34.9542C44.0685 34.344 43.8529 33.6298 43.8502 32.899V32.793C43.8456 32.7278 43.8346 32.6631 43.8172 32.6L43.8402 32.599ZM36.3202 28.919C36.3588 28.662 36.4156 28.408 36.4902 28.159C37.4177 27.6585 38.4681 27.4313 39.5196 27.5039C40.571 27.5765 41.5803 27.9458 42.4302 28.569C42.695 28.7641 42.9426 28.9816 43.1702 29.219C42.743 29.7215 42.411 30.2976 42.1902 30.919C41.266 30.1494 40.2599 29.4837 39.1902 28.934C38.9515 28.818 38.6765 28.8015 38.4256 28.8883C38.1748 28.975 37.9687 29.1578 37.8527 29.3965C37.7367 29.6352 37.7202 29.9102 37.8069 30.1611C37.8937 30.4119 38.0765 30.618 38.3152 30.734C39.6046 31.4257 40.8002 32.2792 41.8732 33.274C41.9129 33.9681 42.0825 34.6485 42.3732 35.28C41.9331 35.3167 41.4903 35.3033 41.0532 35.24C40.3008 35.1314 39.5784 34.8705 38.9302 34.4734C38.282 34.0762 37.7216 33.5511 37.2832 32.93C36.4609 31.7659 36.1172 30.3303 36.3232 28.92L36.3202 28.919ZM31.4702 37.389C31.4702 39.089 37.9102 41.569 48.0002 41.569C58.0902 41.569 64.5302 39.089 64.5302 37.389V40.349C61.3002 42.469 54.6202 43.569 48.0002 43.569C41.3802 43.569 34.7002 42.469 31.4702 40.349V37.389ZM31.4702 45.499C32.1503 45.6998 32.8776 45.6717 33.5402 45.419C33.9802 45.279 34.1202 45.309 34.3802 45.819L34.5402 46.139C35.2002 47.449 36.0202 49.069 37.7802 49.529C38.5347 49.7729 39.3419 49.804 40.1129 49.6187C40.8839 49.4335 41.5889 49.0391 42.1502 48.479C42.5111 48.0877 42.9941 47.8303 43.5202 47.749C43.9006 47.6534 44.3019 47.6847 44.6629 47.8382C45.024 47.9916 45.325 48.2588 45.5202 48.599C45.9728 49.2488 46.5902 49.7663 47.309 50.0985C48.0278 50.4306 48.822 50.5654 49.6102 50.489C49.8902 50.489 50.2002 50.479 50.5202 50.449C51.2358 50.3795 51.9253 50.1446 52.5345 49.7628C53.1437 49.381 53.6557 48.8627 54.0302 48.249C54.3442 47.7091 54.7933 47.2602 55.3333 46.9464C55.8733 46.6325 56.4856 46.4646 57.1102 46.459C57.6902 46.429 58.0902 46.709 58.7402 47.209C59.467 47.9043 60.4249 48.3067 61.4302 48.339C61.901 48.3205 62.3647 48.2189 62.8002 48.039C63.022 47.9533 63.2334 47.8426 63.4302 47.709C63.6908 47.5472 63.9238 47.3446 64.1202 47.109C64.274 46.9427 64.4113 46.7619 64.5302 46.569V49.489C64.5302 51.199 58.0902 53.669 48.0002 53.669C37.9102 53.669 31.4702 51.199 31.4702 49.489V45.499ZM21.7502 52.099C21.7502 55.719 32.5302 59.759 48.0002 59.759C63.4702 59.759 74.2502 55.719 74.2502 52.099V55.859C69.8102 59.719 58.6502 61.759 48.0002 61.759C37.3502 61.759 26.1902 59.719 21.7502 55.859V52.099ZM48.0002 79.999C32.5492 79.999 21.7742 75.974 21.7442 72.354C21.7468 72.3458 21.7488 72.3375 21.7502 72.329V64.669C22.2871 65.0012 22.8983 65.1943 23.5286 65.231C24.1589 65.2676 24.7884 65.1467 25.3602 64.879C26.2002 64.589 26.7302 64.659 27.3002 65.869C27.5447 66.42 27.7584 66.9842 27.9402 67.559C28.6002 69.539 29.4202 71.999 32.3502 73.189C35.8002 74.599 37.6502 72.549 39.0002 71.049C39.8402 70.109 40.5702 69.299 41.5302 69.229C43.7602 69.069 44.4102 69.869 45.3602 71.079C46.0372 72.1173 46.9813 72.954 48.0934 73.5012C49.2056 74.0485 50.4445 74.2861 51.6802 74.189C52.0802 74.189 52.5202 74.169 52.9902 74.129C55.7902 73.889 56.8502 72.189 57.7902 70.679C58.7802 69.109 59.6302 67.749 62.5402 67.599C63.5409 67.5931 64.5101 67.9481 65.2702 68.599C65.9782 69.2071 66.8417 69.6059 67.7637 69.7507C68.6857 69.8955 69.6298 69.7807 70.4902 69.419C70.6002 69.379 70.7102 69.339 70.8302 69.289C71.4659 69.0222 72.0333 68.6154 72.4902 68.099C72.5602 68.029 72.6202 67.959 72.6802 67.889C73.3401 67.0137 73.869 66.0468 74.2502 65.019V72.329C74.2516 72.3375 74.2536 72.3458 74.2562 72.354C74.2262 75.974 63.4512 79.999 48.0002 79.999Z" fill="white"/>
</g>
<defs>
<clipPath id="clip0_323_6476">
<rect width="96" height="134" fill="white"/>
</clipPath>
</defs>
</svg>
