<svg width="32" height="32" viewBox="0 0 32 32" fill="none" xmlns="http://www.w3.org/2000/svg">
<path d="M30.3996 13.2371C30.3854 13.5762 30.2061 13.9636 29.8581 14.2695C28.4652 15.4931 27.0715 16.7156 25.6771 17.937C25.026 18.5083 24.374 19.0787 23.7212 19.6482C23.6279 19.7292 23.6042 19.8011 23.6328 19.9269C24.134 22.117 24.6311 24.3079 25.1241 26.4998C25.2239 26.9403 25.3222 27.3816 25.4301 27.8206C25.5872 28.4706 25.3865 29.113 24.8798 29.4767C24.3223 29.8767 23.7303 29.9027 23.1411 29.5532C21.2641 28.4373 19.3895 27.3171 17.5173 26.1923C17.0802 25.9312 16.6378 25.6761 16.208 25.4054C16.0642 25.3148 15.9598 25.314 15.8122 25.4027C13.5355 26.7694 11.2538 28.1276 8.97974 29.4939C8.49678 29.7837 8.0035 29.8927 7.46969 29.6736C6.76342 29.3838 6.39441 28.6412 6.56993 27.8695C7.06627 25.6853 7.56337 23.5011 8.06124 21.3169C8.16602 20.858 8.2597 20.3957 8.37327 19.9403C8.40616 19.8088 8.38321 19.7311 8.28341 19.6443C7.42788 18.9002 6.57452 18.1535 5.72332 17.4043C4.53066 16.3573 3.3334 15.3176 2.14762 14.263C1.66351 13.8332 1.47997 13.2845 1.67843 12.657C1.87689 12.0295 2.32046 11.6517 2.98199 11.5836C4.15439 11.4635 5.3287 11.363 6.50225 11.2555C7.66318 11.1492 8.8241 11.0437 9.98503 10.9389C10.372 10.9041 10.759 10.8651 11.1463 10.8357C11.271 10.8265 11.3375 10.7718 11.3842 10.6582C12.4358 8.18724 13.4891 5.71727 14.5442 3.24833C14.8356 2.56576 15.3561 2.18452 16.0176 2.20173C16.6791 2.21894 17.1563 2.54206 17.4187 3.14967C18.1326 4.80273 18.8373 6.45962 19.5451 8.11574C19.9053 8.95699 20.2663 9.80054 20.6204 10.6456C20.6747 10.7756 20.7523 10.8261 20.8881 10.8368C21.8211 10.9158 22.7538 10.9987 23.6864 11.0854C25.0441 11.2087 26.4017 11.3331 27.7592 11.4586C28.1905 11.4968 28.6222 11.535 29.0524 11.5832C29.8348 11.6758 30.4057 12.3285 30.3996 13.2371Z" stroke="#CC1B73" stroke-width="2" stroke-linecap="round" stroke-linejoin="round"/>
</svg>
