<svg width="40" height="40" viewBox="0 0 40 40" fill="none" xmlns="http://www.w3.org/2000/svg">
<path fill-rule="evenodd" clip-rule="evenodd" d="M7.48385 13.4199C6.02773 13.4199 4.85547 14.5919 4.85547 16.0476V20.3852L5.23844 20.9356C5.85441 21.3247 6.5176 21.679 7.12423 21.8668C7.75577 22.0608 8.29442 22.078 8.68828 21.8964C9.72407 21.4207 10.5647 20.5616 11.478 19.8648C11.9347 19.5167 12.4173 19.2039 12.9829 19.0488C13.5486 18.8942 14.1926 18.9222 14.8423 19.2008C16.0846 19.733 16.9403 20.6855 17.8059 21.3107C18.6715 21.9348 19.4389 22.2896 20.7768 21.8715C22.1379 21.4466 23.2463 20.4863 24.3755 19.7341C24.9401 19.358 25.5177 19.0275 26.1726 18.8988C26.8275 18.7697 27.5519 18.877 28.2483 19.2983C29.5539 20.0879 30.2566 21.1322 30.981 21.7646C31.7054 22.3981 32.3722 22.7373 34.0323 22.3592C34.3369 22.2902 34.6337 22.1963 34.929 22.0925L35.1412 21.9851V16.0476C35.1412 14.5924 33.9695 13.4199 32.5129 13.4199H7.48385ZM26.6936 19.9644C26.5929 19.9696 26.4922 19.98 26.389 20.0002C25.9754 20.0817 25.5125 20.3239 24.9967 20.6674C23.9656 21.3543 22.7559 22.4281 21.1115 22.9417C19.4441 23.4626 18.1453 22.9417 17.1479 22.2196C16.1505 21.499 15.3477 20.6378 14.3986 20.2311C13.9528 20.0412 13.6259 20.035 13.2798 20.131C12.9336 20.2259 12.5631 20.4485 12.1589 20.7571C11.3499 21.3745 10.4371 22.3285 9.15636 22.9163C8.40806 23.2603 7.57777 23.183 6.79367 22.9417C6.12166 22.7348 5.46573 22.3986 4.85599 22.0287V30.9243H35.1412V23.2043C34.8657 23.2976 34.5818 23.3848 34.2809 23.4533C32.3717 23.8885 31.1289 23.3843 30.2415 22.6087C29.3536 21.8336 28.7418 20.9071 27.6681 20.2575C27.2981 20.0339 26.9966 19.9556 26.6946 19.9644H26.6936ZM13.6 23.8844C14.3742 23.8844 15.0135 24.5235 15.013 25.297C15.013 26.0711 14.3737 26.7097 13.6 26.7097C12.8262 26.7097 12.1864 26.0706 12.1869 25.297C12.1869 24.523 12.8262 23.8844 13.6 23.8844ZM26.1233 23.8844C26.8975 23.8844 27.5368 24.5235 27.5363 25.297C27.5363 26.0711 26.897 26.7097 26.1233 26.7097C25.3496 26.7097 24.7097 26.0706 24.7102 25.297C24.7102 24.523 25.3496 23.8844 26.1233 23.8844Z" fill="#CC1B73"/>
<path fill-rule="evenodd" clip-rule="evenodd" d="M22.7996 10.0336C22.7996 10.776 22.5043 11.4877 21.9791 12.0127C21.454 12.5378 20.7415 12.8324 19.9989 12.8319C19.2563 12.8319 18.5438 12.5372 18.0187 12.0127C17.4935 11.4877 17.1982 10.776 17.1982 10.0336C17.1982 9.29119 17.4935 8.57941 18.0187 8.0544C18.5438 7.52938 19.2563 7.23471 19.9989 7.23523C20.7415 7.23523 21.454 7.5299 21.9791 8.0544C22.5043 8.57941 22.7996 9.29119 22.7996 10.0336Z" fill="#CC1B73"/>
<path d="M24.1346 0.833008C24.0833 0.833008 24.0324 0.839233 23.9826 0.853241C22.3511 1.25167 21.2172 2.19742 20.5275 3.34809C19.9645 4.28761 19.691 5.34853 19.5898 6.39233C19.7237 6.37729 19.8592 6.36795 19.9972 6.36795C20.2411 6.36795 20.4793 6.39389 20.7102 6.43954C20.8052 5.54567 21.0439 4.66218 21.4876 3.92291C22.0439 2.9948 22.8902 2.27368 24.2509 1.94166C24.5275 1.87836 24.7138 1.61845 24.6842 1.33623C24.6546 1.05349 24.4185 0.837677 24.1346 0.833008Z" fill="#CC1B73"/>
<path fill-rule="evenodd" clip-rule="evenodd" d="M0.832031 31.792C1.17349 34.0939 2.85482 35.8344 4.89525 35.8344H35.1021C37.1426 35.8344 38.8239 34.0939 39.1654 31.792H0.832031Z" fill="#CC1B73"/>
</svg>
